<?xml version="1.0" encoding="UTF-8" standalone="no"?>
<!-- Generator: Adobe Illustrator 19.0.0, SVG Export Plug-In . SVG Version: 6.00 Build 0)  -->

<svg
   xmlns:dc="http://purl.org/dc/elements/1.1/"
   xmlns:cc="http://creativecommons.org/ns#"
   xmlns:rdf="http://www.w3.org/1999/02/22-rdf-syntax-ns#"
   xmlns:svg="http://www.w3.org/2000/svg"
   xmlns="http://www.w3.org/2000/svg"
   xmlns:sodipodi="http://sodipodi.sourceforge.net/DTD/sodipodi-0.dtd"
   xmlns:inkscape="http://www.inkscape.org/namespaces/inkscape"
   version="1.1"
   id="Layer_1"
   x="0px"
   y="0px"
   viewBox="0 0 314.30215 194.088"
   xml:space="preserve"
   sodipodi:docname="button.svg"
   width="314.30215"
   height="194.088"
   inkscape:version="0.92.2 (unknown)"><metadata
     id="metadata240"><rdf:RDF><cc:Work
         rdf:about=""><dc:format>image/svg+xml</dc:format><dc:type
           rdf:resource="http://purl.org/dc/dcmitype/StillImage" /><dc:title></dc:title></cc:Work></rdf:RDF></metadata><defs
     id="defs238" /><sodipodi:namedview
     pagecolor="#ffffff"
     bordercolor="#666666"
     borderopacity="1"
     objecttolerance="10"
     gridtolerance="10"
     guidetolerance="10"
     inkscape:pageopacity="0"
     inkscape:pageshadow="2"
     inkscape:window-width="1853"
     inkscape:window-height="1025"
     id="namedview236"
     showgrid="false"
     inkscape:zoom="1.91"
     inkscape:cx="224.39373"
     inkscape:cy="125.71535"
     inkscape:window-x="67"
     inkscape:window-y="27"
     inkscape:window-maximized="1"
     inkscape:current-layer="Layer_1" /><path
     style="fill:#21d0c3;stroke:#000000;stroke-opacity:1"
     d="m 122.46616,146.274 h 69.762 c 3.058,0 5.538,2.479 5.538,5.538 v 9.533 c 0,3.058 -2.479,5.538 -5.538,5.538 h -69.762 c -3.058,0 -5.538,-2.479 -5.538,-5.538 v -9.533 c 0,-3.059 2.479,-5.538 5.538,-5.538 z"
     id="path173"
     inkscape:connector-curvature="0" /><g
     id="g205"
     transform="translate(-98.652842,-115.029)" /><g
     id="g207"
     transform="translate(-98.652842,-115.029)" /><g
     id="g209"
     transform="translate(-98.652842,-115.029)" /><g
     id="g211"
     transform="translate(-98.652842,-115.029)" /><g
     id="g213"
     transform="translate(-98.652842,-115.029)" /><g
     id="g215"
     transform="translate(-98.652842,-115.029)" /><g
     id="g217"
     transform="translate(-98.652842,-115.029)" /><g
     id="g219"
     transform="translate(-98.652842,-115.029)" /><g
     id="g221"
     transform="translate(-98.652842,-115.029)" /><g
     id="g223"
     transform="translate(-98.652842,-115.029)" /><g
     id="g225"
     transform="translate(-98.652842,-115.029)" /><g
     id="g227"
     transform="translate(-98.652842,-115.029)" /><g
     id="g229"
     transform="translate(-98.652842,-115.029)" /><g
     id="g231"
     transform="translate(-98.652842,-115.029)" /><g
     id="g233"
     transform="translate(-98.652842,-115.029)" /><path
     style="fill:#21d0c3;fill-opacity:1;stroke:#000000;stroke-width:0.39115819;stroke-opacity:1"
     d="m 119.60765,165.87581 c -2.08158,-1.28975 -2.62802,-3.21925 -2.62802,-9.2796 0,-4.60593 0.11684,-5.66614 0.77401,-7.02368 1.53643,-3.17384 -1.44822,-2.95085 39.49728,-2.95085 40.2196,0 37.95247,-0.14126 39.54082,2.46373 0.67331,1.10426 0.76356,1.99198 0.76356,7.5108 0,5.51882 -0.0903,6.40654 -0.76356,7.51081 -1.5889,2.60588 0.68831,2.46481 -39.60118,2.45332 -33.84992,-0.01 -36.57378,-0.0593 -37.58291,-0.68453 z"
     id="path242"
     inkscape:connector-curvature="0" /></svg>