<?xml version="1.0" encoding="UTF-8" standalone="no"?>
<!-- Generator: Adobe Illustrator 19.0.0, SVG Export Plug-In . SVG Version: 6.00 Build 0)  -->

<svg
   xmlns:dc="http://purl.org/dc/elements/1.1/"
   xmlns:cc="http://creativecommons.org/ns#"
   xmlns:rdf="http://www.w3.org/1999/02/22-rdf-syntax-ns#"
   xmlns:svg="http://www.w3.org/2000/svg"
   xmlns="http://www.w3.org/2000/svg"
   xmlns:sodipodi="http://sodipodi.sourceforge.net/DTD/sodipodi-0.dtd"
   xmlns:inkscape="http://www.inkscape.org/namespaces/inkscape"
   version="1.1"
   id="Layer_1"
   x="0px"
   y="0px"
   viewBox="0 0 314.30215 194.088"
   xml:space="preserve"
   sodipodi:docname="login.svg"
   width="314.30215"
   height="194.088"
   inkscape:version="0.92.2 (unknown)"><metadata
     id="metadata240"><rdf:RDF><cc:Work
         rdf:about=""><dc:format>image/svg+xml</dc:format><dc:type
           rdf:resource="http://purl.org/dc/dcmitype/StillImage" /><dc:title></dc:title></cc:Work></rdf:RDF></metadata><defs
     id="defs238" /><sodipodi:namedview
     pagecolor="#ffffff"
     bordercolor="#666666"
     borderopacity="1"
     objecttolerance="10"
     gridtolerance="10"
     guidetolerance="10"
     inkscape:pageopacity="0"
     inkscape:pageshadow="2"
     inkscape:window-width="1853"
     inkscape:window-height="1025"
     id="namedview236"
     showgrid="false"
     inkscape:zoom="1.91"
     inkscape:cx="224.39373"
     inkscape:cy="125.71535"
     inkscape:window-x="67"
     inkscape:window-y="27"
     inkscape:window-maximized="1"
     inkscape:current-layer="g195" /><g
     id="g157"
     transform="translate(-99.044,-115.029)"><path
       style="fill:#ffffff;stroke:#000000;stroke-opacity:1"
       d="m 141.237,115.529 h 229.525 34.165 c 4.143,0 7.528,3.39 7.528,7.528 V 167.85 308.617 H 99.544 V 167.851 123.058 c 0,-4.143 3.385,-7.528 7.528,-7.528 z"
       id="path155"
       inkscape:connector-curvature="0" /></g><rect
     x="67.852165"
     y="71.467003"
     style="fill:#ecf0f1;stroke:#000000;stroke-opacity:1"
     width="179.71899"
     height="25.091"
     id="rect159" /><path
     style="fill:#828282;stroke:#000000;stroke-opacity:1"
     d="M 8.4191582,0.5 H 306.27416 c 4.143,0 7.528,3.385 7.528,7.528 V 23.081 H 0.8911582 V 8.028 c 0,-4.142 3.385,-7.528 7.528,-7.528 z"
     id="path161"
     inkscape:connector-curvature="0" /><path
     style="fill:#ffffff;stroke:#000000;stroke-width:1.52707136;stroke-opacity:1"
     d="M 68.616398,5.74073 H 290.5419 c 1.50961,0 2.74389,1.57142 2.74389,3.47812 v 6.44904 c 0,1.90668 -1.23428,3.4781 -2.74389,3.4781 H 68.616398 c -1.50419,0 -2.73711,-1.56455 -2.73711,-3.4781 V 9.21885 c -0.001,-1.91529 1.23292,-3.47812 2.73711,-3.47812 z"
     id="path163"
     inkscape:connector-curvature="0" /><path
     style="fill:#21d0c3;stroke:#000000;stroke-opacity:1"
     d="m 18.682158,6.953 c 2.392,0 4.333,1.94 4.333,4.333 0,2.393 -1.94,4.333 -4.333,4.333 -2.397,0 -4.337,-1.94 -4.337,-4.333 0,-2.398 1.941,-4.333 4.337,-4.333 z"
     id="path165"
     inkscape:connector-curvature="0" /><rect
     x="67.852165"
     y="109.133"
     style="fill:#ecf0f1;stroke:#000000;stroke-opacity:1"
     width="179.71899"
     height="25.091"
     id="rect167" /><path
     style="fill:#fad24d;stroke:#000000;stroke-opacity:1"
     d="m 35.785158,6.953 c 2.397,0 4.333,1.94 4.333,4.333 0,2.393 -1.94,4.333 -4.333,4.333 -2.393,0 -4.333,-1.94 -4.333,-4.333 10e-4,-2.398 1.941,-4.333 4.333,-4.333 z"
     id="path169"
     inkscape:connector-curvature="0" /><path
     style="fill:#ff5b62;stroke:#000000;stroke-opacity:1"
     d="m 52.898158,6.953 c 2.392,0 4.333,1.94 4.333,4.333 0,2.393 -1.94,4.333 -4.333,4.333 -2.397,0 -4.338,-1.94 -4.338,-4.333 10e-4,-2.398 1.941,-4.333 4.338,-4.333 z"
     id="path171"
     inkscape:connector-curvature="0" /><path
     style="fill:#21d0c3;stroke:#000000;stroke-opacity:1"
     d="m 122.46616,146.274 h 69.762 c 3.058,0 5.538,2.479 5.538,5.538 v 9.533 c 0,3.058 -2.479,5.538 -5.538,5.538 h -69.762 c -3.058,0 -5.538,-2.479 -5.538,-5.538 v -9.533 c 0,-3.059 2.479,-5.538 5.538,-5.538 z"
     id="path173"
     inkscape:connector-curvature="0" /><g
     id="g195"
     transform="translate(-98.652842,-115.029)"><circle
       style="fill:#828282;stroke:#000000;stroke-opacity:1"
       cx="183.162"
       cy="236.70799"
       r="4.6370001"
       id="circle183" /><circle
       style="fill:#828282;stroke:#000000;stroke-opacity:1"
       cx="203.532"
       cy="236.70799"
       r="4.6370001"
       id="circle185" /><circle
       style="fill:#828282;stroke:#000000;stroke-opacity:1"
       cx="223.89301"
       cy="236.70799"
       r="4.6370001"
       id="circle187" /><circle
       style="fill:#828282;stroke:#000000;stroke-opacity:1"
       cx="244.263"
       cy="236.70799"
       r="4.6370001"
       id="circle189" /><circle
       style="fill:#828282;stroke:#000000;stroke-opacity:1"
       cx="264.633"
       cy="236.70799"
       r="4.6370001"
       id="circle191" /><circle
       style="fill:#828282;stroke:#000000;stroke-opacity:1"
       cx="284.99301"
       cy="236.70799"
       r="4.6370001"
       id="circle193" /></g><g
     id="g205"
     transform="translate(-98.652842,-115.029)" /><g
     id="g207"
     transform="translate(-98.652842,-115.029)" /><g
     id="g209"
     transform="translate(-98.652842,-115.029)" /><g
     id="g211"
     transform="translate(-98.652842,-115.029)" /><g
     id="g213"
     transform="translate(-98.652842,-115.029)" /><g
     id="g215"
     transform="translate(-98.652842,-115.029)" /><g
     id="g217"
     transform="translate(-98.652842,-115.029)" /><g
     id="g219"
     transform="translate(-98.652842,-115.029)" /><g
     id="g221"
     transform="translate(-98.652842,-115.029)" /><g
     id="g223"
     transform="translate(-98.652842,-115.029)" /><g
     id="g225"
     transform="translate(-98.652842,-115.029)" /><g
     id="g227"
     transform="translate(-98.652842,-115.029)" /><g
     id="g229"
     transform="translate(-98.652842,-115.029)" /><g
     id="g231"
     transform="translate(-98.652842,-115.029)" /><g
     id="g233"
     transform="translate(-98.652842,-115.029)" /><path
     style="fill:#21d0c3;fill-opacity:1;stroke:#000000;stroke-width:0.39115819;stroke-opacity:1"
     d="m 119.60765,165.87581 c -2.08158,-1.28975 -2.62802,-3.21925 -2.62802,-9.2796 0,-4.60593 0.11684,-5.66614 0.77401,-7.02368 1.53643,-3.17384 -1.44822,-2.95085 39.49728,-2.95085 40.2196,0 37.95247,-0.14126 39.54082,2.46373 0.67331,1.10426 0.76356,1.99198 0.76356,7.5108 0,5.51882 -0.0903,6.40654 -0.76356,7.51081 -1.5889,2.60588 0.68831,2.46481 -39.60118,2.45332 -33.84992,-0.01 -36.57378,-0.0593 -37.58291,-0.68453 z"
     id="path242"
     inkscape:connector-curvature="0" /><text
     xml:space="preserve"
     style="font-style:normal;font-weight:normal;font-size:40px;line-height:1.25;font-family:sans-serif;letter-spacing:0px;word-spacing:0px;fill:#000000;fill-opacity:1;stroke:none"
     x="114.52837"
     y="55.88105"
     id="text4740"><tspan
       sodipodi:role="line"
       id="tspan4738"
       x="114.52837"
       y="55.88105"
       style="font-style:normal;font-variant:normal;font-weight:normal;font-stretch:normal;font-family:Lobster;-inkscape-font-specification:Lobster">Login</tspan></text>
<text
     xml:space="preserve"
     style="font-style:normal;font-weight:normal;font-size:40px;line-height:1.25;font-family:sans-serif;letter-spacing:0px;word-spacing:0px;fill:#000000;fill-opacity:1;stroke:none"
     x="68.569862"
     y="16.673958"
     id="text4744"><tspan
       sodipodi:role="line"
       id="tspan4742"
       x="68.569862"
       y="16.673958"
       style="font-style:normal;font-variant:normal;font-weight:normal;font-stretch:normal;font-size:13.33333302px;font-family:AnjaliOldLipi;-inkscape-font-specification:AnjaliOldLipi">www.domain.com/login</tspan></text>
</svg>